<svg width="150" height="38" viewBox="0 0 150 38" fill="none" xmlns="http://www.w3.org/2000/svg">
<path d="M145.342 35.7684L7.76416 35.2756L145.342 34.7827V35.7684Z" fill="#488ECC"/>
<mask id="mask0_1170_355" style="mask-type:luminance" maskUnits="userSpaceOnUse" x="0" y="0" width="150" height="38">
<path d="M0 6.54096e-06H150V37.8882H0V6.54096e-06Z" fill="white"/>
</mask>
<g mask="url(#mask0_1170_355)">
<path d="M25.7066 9.29298C24.5143 10.1711 23.353 11.0837 22.2176 12.024C23.3577 12.0849 24.4963 12.1721 25.623 12.2856C26.5042 11.3845 27.4134 10.5034 28.3475 9.64115C27.4705 9.50926 26.5884 9.39257 25.7066 9.29298ZM0.931641 35.5818C1.72351 34.9054 2.52375 34.2511 3.33131 33.6188C4.36364 31.7628 5.47114 29.956 6.64525 28.1985L6.64267 28.1968C6.96608 27.7127 7.29476 27.2329 7.62818 26.757C7.62974 26.7548 7.63118 26.7525 7.63273 26.7503C7.63281 26.7503 7.63288 26.7503 7.63296 26.7503C12.5281 19.7642 18.4933 13.6677 25.3854 8.61147L25.5016 8.52629L25.6448 8.54217C26.782 8.66826 27.9195 8.82483 29.0472 9.00399C30.5 7.69666 32.0111 6.43479 33.5856 5.2283C34.194 3.79246 34.8591 2.35901 35.5819 0.93158C20.6628 8.53319 8.53329 20.6628 0.931641 35.5818ZM24.9716 12.9652C21.0584 17.0704 17.6844 21.5481 14.895 26.2847C12.8263 26.3128 10.7294 26.4376 8.61343 26.6507C9.56008 25.3232 10.5456 24.0286 11.57 22.7683C12.4941 22.6383 13.4286 22.5241 14.3511 22.4314L14.4974 22.4166L14.5937 22.3053C15.7635 20.9524 16.9976 19.6304 18.2659 18.3596C18.3792 18.4064 18.5031 18.4329 18.6333 18.4329C19.1651 18.4329 19.5962 18.0018 19.5962 17.47C19.5962 16.9382 19.1651 16.5071 18.6333 16.5071C18.1014 16.5071 17.6703 16.9382 17.6703 17.47C17.6703 17.5999 17.6968 17.7234 17.7434 17.8365C16.4971 19.0852 15.2835 20.3828 14.1307 21.7107C13.508 21.7746 12.8813 21.8505 12.2556 21.9315C15.0331 18.6104 18.084 15.5356 21.3848 12.7229C22.5829 12.7735 23.7829 12.8552 24.9716 12.9652Z" fill="#488ECC"/>
<path d="M15.5676 10.912C14.0299 12.1467 12.5336 13.4388 11.0814 14.7871C11.108 16.0653 11.1696 17.3405 11.2583 18.6031C12.6153 17.09 14.0276 15.6293 15.4935 14.2252C15.4941 13.1288 15.5192 12.0217 15.5676 10.912ZM10.2427 15.5731C8.90436 16.8508 7.60333 18.1745 6.34619 19.5472C6.37625 21.1575 6.45598 22.7498 6.58374 24.3215C7.81441 22.6652 9.10801 21.0608 10.4583 19.5088C10.3525 18.2106 10.283 16.8936 10.2427 15.5731ZM16.2359 13.5238C17.8208 12.0441 19.4656 10.6294 21.1658 9.28241C21.217 8.41116 21.2839 7.53381 21.3656 6.65672C19.6467 7.80528 17.9671 9.01746 16.3341 10.297C16.2781 11.3757 16.2465 12.4538 16.2359 13.5238ZM22.0248 6.22288C24.9276 4.32336 27.9415 2.60763 31.0536 1.09555C32.0665 1.02113 33.0752 0.967034 34.0789 0.932877C29.7446 3.17654 25.6422 5.80428 21.8144 8.7732C21.8704 7.92538 21.9402 7.07317 22.0248 6.22288Z" fill="#242E69"/>
<path d="M144.451 19.9615C143.865 19.582 143.227 19.4439 141.381 19.3404C139.518 19.2196 139.518 19.2196 139.276 19.1679C138.759 19.03 138.552 18.7023 138.552 17.9948C138.552 16.8907 138.931 16.6493 140.725 16.6493C142.347 16.6493 142.605 16.8563 142.605 18.1673H145.141C145.159 17.9777 145.159 17.7707 145.159 17.7017C145.159 16.7184 144.952 16.0283 144.52 15.5106C143.934 14.8207 142.985 14.5964 140.639 14.5964C138.5 14.5964 137.568 14.769 136.827 15.2864C136.188 15.7522 135.895 16.5976 135.895 17.9777C135.895 19.6164 136.257 20.4618 137.154 20.9104C137.741 21.2034 138.276 21.2898 140.156 21.4107C142.243 21.5485 142.243 21.5485 142.519 21.7728C142.744 21.928 142.83 22.2387 142.83 22.739C142.83 23.3427 142.709 23.7049 142.468 23.8948C142.174 24.1188 141.916 24.1708 140.863 24.1708C139.293 24.1708 139.052 24.1361 138.776 23.9119C138.517 23.6705 138.414 23.3254 138.414 22.7043V22.4974H135.878C135.878 23.9292 135.998 24.5329 136.361 25.085C136.93 25.9992 137.931 26.2752 140.742 26.2752C143.054 26.2752 143.968 26.0856 144.693 25.4127C145.245 24.8951 145.452 24.1188 145.452 22.6353C145.452 21.1173 145.193 20.4445 144.451 19.9615ZM125.994 16.9771H129.1V26.189H131.756V16.9771H135.017V14.6826H125.994V16.9771ZM117.335 26.189H119.992V21.7384H124.891V19.5474H119.992V16.8736H125.219V14.6826H117.335V26.189ZM112.507 22.1523L110.799 16.6838L109.108 22.1523H112.507ZM112.748 14.6826L116.44 26.189H113.714L113.059 24.1017H108.522L107.883 26.189H105.123L108.763 14.6826H112.748ZM101.606 18.6159C101.606 17.2358 101.364 16.9598 100.087 16.9598H97.3273V20.4962H100.087C101.33 20.4962 101.606 20.1511 101.606 18.6159ZM102.192 21.5485V21.6349C103.555 21.7211 104.228 22.4801 104.21 23.8948V26.189H101.519V24.3951C101.554 23.239 101.071 22.7217 100.019 22.756H97.3273V26.189H94.6706V14.6826H100.398C101.588 14.6826 102.364 14.8034 102.899 15.0794C103.917 15.5797 104.314 16.4595 104.314 18.1673C104.314 20.5653 103.952 21.1517 102.192 21.5485ZM90.4113 20.341C90.4113 18.6849 90.3252 18.0294 90.0318 17.5982C89.7558 17.1667 89.2899 16.9944 88.3928 16.9944H85.5292V23.9119H88.324C89.2382 23.9119 89.7041 23.7222 90.0145 23.239C90.3252 22.756 90.4113 22.1179 90.4113 20.341ZM93.1197 19.2196C93.1197 22.5147 93.0333 23.4806 92.6712 24.2743C92.033 25.6197 90.8599 26.189 88.6691 26.189H82.8725V14.6826H88.7208C91.8258 14.6826 93.1197 16.0109 93.1197 19.2196ZM68.4523 16.9771H71.5575V26.189H74.2141V16.9771H77.4745V14.6826H68.4523V16.9771ZM66.7457 19.9615C66.1593 19.582 65.521 19.4439 63.6751 19.3404C61.812 19.2196 61.812 19.2196 61.5705 19.1679C61.053 19.03 60.846 18.7023 60.846 17.9948C60.846 16.8907 61.2254 16.6493 63.0195 16.6493C64.6412 16.6493 64.8999 16.8563 64.8999 18.1673H67.4357C67.4531 17.9777 67.4531 17.7707 67.4531 17.7017C67.4531 16.7184 67.246 16.0283 66.8148 15.5106C66.2282 14.8207 65.2794 14.5964 62.9334 14.5964C60.7942 14.5964 59.8627 14.769 59.1209 15.2864C58.4826 15.7522 58.1893 16.5976 58.1893 17.9777C58.1893 19.6164 58.5516 20.4618 59.4487 20.9104C60.0351 21.2034 60.5699 21.2898 62.4503 21.4107C64.5376 21.5485 64.5376 21.5485 64.8136 21.7728C65.0379 21.928 65.1242 22.2387 65.1242 22.739C65.1242 23.3427 65.0034 23.7049 64.7619 23.8948C64.4687 24.1188 64.2099 24.1708 63.1575 24.1708C61.5877 24.1708 61.3462 24.1361 61.0702 23.9119C60.8114 23.6705 60.7079 23.3254 60.7079 22.7043V22.4974H58.1721C58.1721 23.9292 58.2929 24.5329 58.6551 25.085C59.2244 25.9992 60.225 26.2752 63.0368 26.2752C65.3484 26.2752 66.2628 26.0856 66.9873 25.4127C67.5393 24.8951 67.7463 24.1188 67.7463 22.6353C67.7463 21.1173 67.4875 20.4445 66.7457 19.9615ZM54.2744 18.6159C54.2744 17.2358 54.0328 16.9598 52.7564 16.9598H49.9962V20.4962H52.7564C53.9984 20.4962 54.2744 20.1511 54.2744 18.6159ZM54.8609 21.5485V21.6349C56.2237 21.7211 56.8966 22.4801 56.8792 23.8948V26.189H54.1881V24.3951C54.2227 23.239 53.7396 22.7217 52.6873 22.756H49.9962V26.189H47.3395V14.6826H53.0669C54.2571 14.6826 55.0334 14.8034 55.5682 15.0794C56.586 15.5797 56.9828 16.4595 56.9828 18.1673C56.9828 20.5653 56.6205 21.1517 54.8609 21.5485ZM42.7341 26.189H45.3907V14.6826H42.7341V26.189ZM33.5405 14.6826H41.4241V16.8736H36.1972V19.5474H41.0964V21.7384H36.1972V26.189H33.5405V14.6826Z" fill="#242E69"/>
</g>
</svg>
