<svg width="1440" height="465" viewBox="0 0 1440 465" fill="none" xmlns="http://www.w3.org/2000/svg">
<g clip-path="url(#clip0_2742_117)">
<rect width="465" height="465" rx="44" fill="#127DB3"/>
<rect x="-173.808" y="387.5" width="763.681" height="77.5" fill="#832691"/>
<rect x="-173.808" width="763.681" height="77.5" fill="#EB3130"/>
<rect x="-173.808" y="77.5" width="763.681" height="77.5" fill="#F19729"/>
<rect x="-173.808" y="155" width="763.681" height="77.5" fill="#F7DC54"/>
<rect x="-173.808" y="232.5" width="763.681" height="77.5" fill="#1B9A42"/>
<rect x="-173.808" y="310" width="763.681" height="77.5" fill="#3C74F7"/>
<g style="mix-blend-mode:luminosity">
<mask id="path-8-outside-1_2742_117" maskUnits="userSpaceOnUse" x="17.0374" y="27.9795" width="423" height="424" fill="black">
<rect fill="white" x="17.0374" y="27.9795" width="423" height="424"/>
<path d="M181.932 133.131C190.018 131.142 198.825 130.052 208.215 130.052H384.216C394.523 130.052 405.517 130.965 413.829 137.313C422.485 143.926 426.883 155.274 426.883 172.719V177.545L327.501 187.483C323.365 187.897 320.216 191.378 320.216 195.534C320.216 199.615 323.253 203.057 327.301 203.563L427.376 216.072L426.856 221.254C426.784 221.95 426.725 222.781 426.656 223.721C426.28 228.904 425.667 237.376 421.843 244.492C419.456 248.935 415.802 252.996 410.29 255.764C404.845 258.502 397.941 259.798 389.29 259.379C384.435 259.144 379.227 258.667 373.992 258.189C371.566 257.965 369.133 257.745 366.725 257.545C358.984 256.905 351.227 256.47 343.675 256.87C328.638 257.665 314.891 261.718 304.179 273.619C302.528 275.455 300.846 277.192 299.142 278.838C307.873 281.245 314.883 289.122 314.883 299.438V334.254C314.883 340.531 312.285 345.902 308.286 349.69L326.085 380.198L325.224 382.553C316.619 406.075 299.381 420.34 281.085 428.644C262.883 436.905 243.418 439.385 229.548 439.385C167.131 439.385 137.368 403.171 128.646 382.819L128.215 381.813V313.572L125.87 315.137C121.39 318.123 112.624 322.699 101.646 322.699C90.3773 322.699 77.6012 317.875 65.4954 303.462L62.1799 299.515L128.207 240.091C115.506 246.016 104.313 248.493 94.3538 248.2C82.2808 247.845 72.4974 243.431 64.5071 237.01C56.6067 230.66 50.4876 222.375 45.4895 214.224C42.1039 208.702 39.062 202.934 36.3596 197.811C35.1279 195.475 33.9664 193.273 32.8752 191.289L29.0374 183.386H128.215V40.9795L181.932 133.131Z"/>
</mask>
<path d="M181.932 133.131C190.018 131.142 198.825 130.052 208.215 130.052H384.216C394.523 130.052 405.517 130.965 413.829 137.313C422.485 143.926 426.883 155.274 426.883 172.719V177.545L327.501 187.483C323.365 187.897 320.216 191.378 320.216 195.534C320.216 199.615 323.253 203.057 327.301 203.563L427.376 216.072L426.856 221.254C426.784 221.95 426.725 222.781 426.656 223.721C426.28 228.904 425.667 237.376 421.843 244.492C419.456 248.935 415.802 252.996 410.29 255.764C404.845 258.502 397.941 259.798 389.29 259.379C384.435 259.144 379.227 258.667 373.992 258.189C371.566 257.965 369.133 257.745 366.725 257.545C358.984 256.905 351.227 256.47 343.675 256.87C328.638 257.665 314.891 261.718 304.179 273.619C302.528 275.455 300.846 277.192 299.142 278.838C307.873 281.245 314.883 289.122 314.883 299.438V334.254C314.883 340.531 312.285 345.902 308.286 349.69L326.085 380.198L325.224 382.553C316.619 406.075 299.381 420.34 281.085 428.644C262.883 436.905 243.418 439.385 229.548 439.385C167.131 439.385 137.368 403.171 128.646 382.819L128.215 381.813V313.572L125.87 315.137C121.39 318.123 112.624 322.699 101.646 322.699C90.3773 322.699 77.6012 317.875 65.4954 303.462L62.1799 299.515L128.207 240.091C115.506 246.016 104.313 248.493 94.3538 248.2C82.2808 247.845 72.4974 243.431 64.5071 237.01C56.6067 230.66 50.4876 222.375 45.4895 214.224C42.1039 208.702 39.062 202.934 36.3596 197.811C35.1279 195.475 33.9664 193.273 32.8752 191.289L29.0374 183.386H128.215V40.9795L181.932 133.131Z" fill="white"/>
<path d="M181.932 133.131L171.565 139.174C174.244 143.771 179.631 146.054 184.798 144.784L181.932 133.131ZM384.216 130.052L384.216 118.052H384.216V130.052ZM413.829 137.313L421.114 127.778L421.113 127.777L413.829 137.313ZM426.883 177.545L428.077 189.485C434.212 188.872 438.883 183.71 438.883 177.545H426.883ZM327.501 187.483L326.307 175.543L326.307 175.543L327.501 187.483ZM320.216 195.534L308.216 195.534V195.534H320.216ZM327.301 203.563L325.812 215.471L325.813 215.471L327.301 203.563ZM427.376 216.072L439.316 217.272C439.967 210.79 435.328 204.973 428.865 204.165L427.376 216.072ZM426.856 221.254L438.792 222.489C438.793 222.477 438.794 222.465 438.796 222.453L426.856 221.254ZM426.656 223.721L414.688 222.838C414.688 222.843 414.687 222.848 414.687 222.852L426.656 223.721ZM421.843 244.492L411.273 238.812L411.272 238.813L421.843 244.492ZM410.29 255.764L404.905 245.04L404.899 245.043L410.29 255.764ZM389.29 259.379L389.87 247.393L389.87 247.393L389.29 259.379ZM373.992 258.189L372.889 270.139L372.903 270.14L373.992 258.189ZM366.725 257.545L367.718 245.586L367.714 245.586L366.725 257.545ZM343.675 256.87L344.308 268.853L344.31 268.853L343.675 256.87ZM304.179 273.619L295.26 265.591L295.258 265.593L304.179 273.619ZM299.142 278.838L290.807 270.204C287.707 273.198 286.45 277.623 287.513 281.799C288.577 285.975 291.798 289.261 295.952 290.406L299.142 278.838ZM314.883 299.438L326.883 299.437L326.883 299.437L314.883 299.438ZM314.883 334.254L326.883 334.254V334.254H314.883ZM308.286 349.69L300.034 340.979C295.988 344.811 295.113 350.924 297.921 355.738L308.286 349.69ZM326.085 380.198L337.355 384.321C338.582 380.965 338.251 377.237 336.45 374.151L326.085 380.198ZM325.224 382.553L336.493 386.676L336.493 386.675L325.224 382.553ZM281.085 428.644L286.045 439.571L286.045 439.571L281.085 428.644ZM229.548 439.385L229.548 451.385H229.548V439.385ZM128.646 382.819L117.614 387.542L117.616 387.547L128.646 382.819ZM128.215 381.813H116.215C116.215 383.437 116.545 385.044 117.184 386.537L128.215 381.813ZM128.215 313.572H140.215C140.215 309.146 137.778 305.079 133.875 302.991C129.972 300.903 125.237 301.133 121.555 303.59L128.215 313.572ZM125.87 315.137L132.527 325.121L132.531 325.119L125.87 315.137ZM101.646 322.699L101.646 334.699H101.646V322.699ZM65.4954 303.462L74.6842 295.744L74.6841 295.744L65.4954 303.462ZM62.1799 299.515L54.1524 290.595C49.3449 294.922 48.8314 302.28 52.9912 307.233L62.1799 299.515ZM128.207 240.091L136.235 249.01C140.652 245.035 141.494 238.424 138.214 233.468C134.934 228.512 128.52 226.703 123.134 229.216L128.207 240.091ZM94.3538 248.2L94.707 236.205L94.7069 236.205L94.3538 248.2ZM64.5071 237.01L56.9895 246.363L56.9899 246.363L64.5071 237.01ZM45.4895 214.224L35.2594 220.496L35.2595 220.496L45.4895 214.224ZM36.3596 197.811L25.7454 203.409L25.7455 203.409L36.3596 197.811ZM32.8752 191.289L22.0807 196.531C22.1694 196.714 22.2628 196.894 22.3607 197.072L32.8752 191.289ZM29.0374 183.386V171.386C24.9031 171.386 21.0601 173.514 18.8662 177.018C16.6724 180.522 16.4369 184.909 18.2428 188.628L29.0374 183.386ZM128.215 183.386V195.386C134.843 195.386 140.215 190.013 140.215 183.386H128.215ZM128.215 40.9795L138.582 34.9362C135.852 30.252 130.319 27.9807 125.085 29.3949C119.851 30.8091 116.215 35.5575 116.215 40.9795H128.215ZM181.932 133.131L184.798 144.784C191.91 143.034 199.753 142.052 208.215 142.052V130.052V118.052C197.897 118.052 188.126 119.25 179.066 121.478L181.932 133.131ZM208.215 130.052V142.052H384.216V130.052V118.052H208.215V130.052ZM384.216 130.052L384.216 142.052C394.443 142.052 401.71 143.157 406.545 146.85L413.829 137.313L421.113 127.777C409.325 118.773 394.602 118.052 384.216 118.052L384.216 130.052ZM413.829 137.313L406.545 146.849C410.934 150.202 414.883 157.009 414.883 172.719H426.883H438.883C438.883 153.539 434.037 137.65 421.114 127.778L413.829 137.313ZM426.883 172.719H414.883V177.545H426.883H438.883V172.719H426.883ZM426.883 177.545L425.689 165.604L326.307 175.543L327.501 187.483L328.695 199.424L428.077 189.485L426.883 177.545ZM327.501 187.483L326.307 175.543C316.035 176.57 308.216 185.214 308.216 195.534L320.216 195.534L332.216 195.534C332.216 197.541 330.695 199.224 328.695 199.424L327.501 187.483ZM320.216 195.534H308.216C308.216 205.662 315.755 214.213 325.812 215.471L327.301 203.563L328.79 191.656C330.752 191.902 332.216 193.568 332.216 195.534H320.216ZM327.301 203.563L325.813 215.471L425.888 227.98L427.376 216.072L428.865 204.165L328.789 191.656L327.301 203.563ZM427.376 216.072L415.436 214.873L414.916 220.055L426.856 221.254L438.796 222.453L439.316 217.272L427.376 216.072ZM426.856 221.254L414.919 220.019C414.824 220.937 414.75 221.994 414.688 222.838L426.656 223.721L438.623 224.604C438.699 223.568 438.743 222.962 438.792 222.489L426.856 221.254ZM426.656 223.721L414.687 222.852C414.288 228.346 413.708 234.28 411.273 238.812L421.843 244.492L432.413 250.173C437.626 240.472 438.271 229.461 438.624 224.589L426.656 223.721ZM421.843 244.492L411.272 238.813C409.908 241.353 407.95 243.511 404.905 245.04L410.29 255.764L415.676 266.487C423.655 262.481 429.005 256.517 432.414 250.171L421.843 244.492ZM410.29 255.764L404.899 245.043C401.779 246.612 397.064 247.741 389.87 247.393L389.29 259.379L388.71 271.365C398.817 271.854 407.911 270.393 415.682 266.484L410.29 255.764ZM389.29 259.379L389.87 247.393C385.318 247.173 380.379 246.722 375.082 246.239L373.992 258.189L372.903 270.14C378.074 270.611 383.551 271.116 388.711 271.365L389.29 259.379ZM373.992 258.189L375.095 246.24C372.66 246.015 370.183 245.791 367.718 245.586L366.725 257.545L365.732 269.504C368.083 269.699 370.472 269.915 372.889 270.139L373.992 258.189ZM366.725 257.545L367.714 245.586C359.825 244.934 351.42 244.443 343.04 244.887L343.675 256.87L344.31 268.853C351.034 268.497 358.143 268.876 365.736 269.504L366.725 257.545ZM343.675 256.87L343.042 244.887C326.198 245.777 308.87 250.47 295.26 265.591L304.179 273.619L313.098 281.647C320.912 272.966 331.078 269.553 344.308 268.853L343.675 256.87ZM304.179 273.619L295.258 265.593C293.797 267.218 292.311 268.753 290.807 270.204L299.142 278.838L307.476 287.471C309.382 285.632 311.259 283.692 313.1 281.645L304.179 273.619ZM299.142 278.838L295.952 290.406C299.936 291.505 302.883 294.981 302.883 299.438L314.883 299.438L326.883 299.437C326.883 283.263 315.81 270.986 302.332 267.27L299.142 278.838ZM314.883 299.438H302.883V334.254H314.883H326.883V299.438H314.883ZM314.883 334.254L302.883 334.254C302.883 337.066 301.766 339.337 300.034 340.979L308.286 349.69L316.539 358.402C322.805 352.467 326.883 343.995 326.883 334.254L314.883 334.254ZM308.286 349.69L297.921 355.738L315.72 386.245L326.085 380.198L336.45 374.151L318.651 343.643L308.286 349.69ZM326.085 380.198L314.816 376.076L313.954 378.43L325.224 382.553L336.493 386.675L337.355 384.321L326.085 380.198ZM325.224 382.553L313.954 378.43C306.714 398.221 292.258 410.394 276.126 417.716L281.085 428.644L286.045 439.571C306.504 430.285 326.523 413.93 336.493 386.676L325.224 382.553ZM281.085 428.644L276.126 417.716C259.883 425.088 242.213 427.385 229.548 427.385V439.385V451.385C244.624 451.385 265.882 448.722 286.045 439.571L281.085 428.644ZM229.548 439.385L229.548 427.385C172.575 427.385 146.774 394.655 139.675 378.092L128.646 382.819L117.616 387.547C127.963 411.687 161.687 451.385 229.548 451.385L229.548 439.385ZM128.646 382.819L139.677 378.096L139.246 377.09L128.215 381.813L117.184 386.537L117.614 387.542L128.646 382.819ZM128.215 381.813H140.215V313.572H128.215H116.215V381.813H128.215ZM128.215 313.572L121.555 303.59L119.21 305.155L125.87 315.137L132.531 325.119L134.875 323.554L128.215 313.572ZM125.87 315.137L119.214 305.152C115.812 307.42 109.371 310.699 101.646 310.699V322.699V334.699C115.877 334.699 126.968 328.827 132.527 325.121L125.87 315.137ZM101.646 322.699L101.646 310.699C94.284 310.699 84.7533 307.732 74.6842 295.744L65.4954 303.462L56.3065 311.18C70.4491 328.018 86.4705 334.699 101.646 334.699L101.646 322.699ZM65.4954 303.462L74.6841 295.744L71.3687 291.797L62.1799 299.515L52.9912 307.233L56.3066 311.18L65.4954 303.462ZM62.1799 299.515L70.2075 308.434L136.235 249.01L128.207 240.091L120.18 231.171L54.1524 290.595L62.1799 299.515ZM128.207 240.091L123.134 229.216C111.699 234.55 102.372 236.431 94.707 236.205L94.3538 248.2L94.0006 260.195C106.255 260.556 119.313 257.481 133.28 250.966L128.207 240.091ZM94.3538 248.2L94.7069 236.205C85.6031 235.937 78.2753 232.68 72.0243 227.656L64.5071 237.01L56.9899 246.363C66.7196 254.183 78.9585 259.752 94.0006 260.195L94.3538 248.2ZM64.5071 237.01L72.0247 227.656C65.663 222.543 60.3936 215.574 55.7195 207.951L45.4895 214.224L35.2595 220.496C40.5816 229.176 47.5504 238.777 56.9895 246.363L64.5071 237.01ZM45.4895 214.224L55.7196 207.951C52.5692 202.813 49.7023 197.386 46.9738 192.212L36.3596 197.811L25.7455 203.409C28.4217 208.483 31.6386 214.591 35.2594 220.496L45.4895 214.224ZM36.3596 197.811L46.9739 192.213C45.7543 189.9 44.5414 187.6 43.3898 185.506L32.8752 191.289L22.3607 197.072C23.3915 198.946 24.5015 201.05 25.7454 203.409L36.3596 197.811ZM32.8752 191.289L43.6698 186.047L39.8319 178.144L29.0374 183.386L18.2428 188.628L22.0807 196.531L32.8752 191.289ZM29.0374 183.386V195.386H128.215V183.386V171.386H29.0374V183.386ZM128.215 183.386H140.215V40.9795H128.215H116.215V183.386H128.215ZM128.215 40.9795L117.848 47.0227L171.565 139.174L181.932 133.131L192.299 127.088L138.582 34.9362L128.215 40.9795Z" fill="#00334D" mask="url(#path-8-outside-1_2742_117)"/>
</g>
<path d="M128.246 313.552V240.057L62.1803 299.515L65.4955 303.462C77.6014 317.875 90.3774 322.699 101.646 322.699C112.624 322.699 121.391 318.123 125.871 315.136L128.246 313.552Z" fill="#82C3D9"/>
<path d="M128.246 313.552V240.057L62.1803 299.515L65.4955 303.462C77.6014 317.875 90.3774 322.699 101.646 322.699C112.624 322.699 121.391 318.123 125.871 315.136L128.246 313.552Z" fill="url(#paint0_radial_2742_117)"/>
<path d="M128.215 183.386V40.9795L181.933 133.132C151.528 140.61 131.31 160.781 128.541 183.386H128.215Z" fill="url(#paint1_linear_2742_117)"/>
<path d="M304.179 273.619C295.517 283.246 286.075 290.211 276.392 295.019L326.085 380.198L325.224 382.552C316.619 406.075 299.381 420.339 281.085 428.643C262.883 436.904 243.419 439.384 229.548 439.384C167.131 439.384 137.369 403.171 128.646 382.819L128.215 381.814V240.088C115.511 246.015 104.315 248.493 94.3539 248.199C82.2808 247.844 72.4976 243.431 64.5072 237.009C56.6067 230.659 50.4872 222.374 45.4891 214.223C42.1035 208.701 39.0619 202.934 36.3595 197.81C35.1278 195.475 33.9664 193.273 32.8752 191.289L29.0374 183.385H128.541C132.046 154.769 163.516 130.052 208.215 130.052H384.216C394.523 130.052 405.517 130.965 413.829 137.314C422.485 143.926 426.883 155.274 426.883 172.718V177.545L327.501 187.483C323.365 187.897 320.216 191.377 320.216 195.534C320.216 199.615 323.253 203.057 327.301 203.563L427.376 216.072L426.856 221.253C426.784 221.949 426.725 222.781 426.656 223.72C426.28 228.903 425.667 237.375 421.843 244.491C419.456 248.934 415.803 252.995 410.291 255.763C404.845 258.502 397.941 259.798 389.291 259.379C384.435 259.144 379.227 258.667 373.992 258.19C371.565 257.966 369.133 257.744 366.725 257.544C358.984 256.904 351.227 256.47 343.675 256.87C328.637 257.664 314.891 261.718 304.179 273.619Z" fill="#F0FBFF"/>
<path d="M304.179 273.619C295.517 283.246 286.075 290.211 276.392 295.019L326.085 380.198L325.224 382.552C316.619 406.075 299.381 420.339 281.085 428.643C262.883 436.904 243.419 439.384 229.548 439.384C167.131 439.384 137.369 403.171 128.646 382.819L128.215 381.814V240.088C115.511 246.015 104.315 248.493 94.3539 248.199C82.2808 247.844 72.4976 243.431 64.5072 237.009C56.6067 230.659 50.4872 222.374 45.4891 214.223C42.1035 208.701 39.0619 202.934 36.3595 197.81C35.1278 195.475 33.9664 193.273 32.8752 191.289L29.0374 183.385H128.541C132.046 154.769 163.516 130.052 208.215 130.052H384.216C394.523 130.052 405.517 130.965 413.829 137.314C422.485 143.926 426.883 155.274 426.883 172.718V177.545L327.501 187.483C323.365 187.897 320.216 191.377 320.216 195.534C320.216 199.615 323.253 203.057 327.301 203.563L427.376 216.072L426.856 221.253C426.784 221.949 426.725 222.781 426.656 223.72C426.28 228.903 425.667 237.375 421.843 244.491C419.456 248.934 415.803 252.995 410.291 255.763C404.845 258.502 397.941 259.798 389.291 259.379C384.435 259.144 379.227 258.667 373.992 258.19C371.565 257.966 369.133 257.744 366.725 257.544C358.984 256.904 351.227 256.47 343.675 256.87C328.637 257.664 314.891 261.718 304.179 273.619Z" fill="url(#paint2_linear_2742_117)"/>
<path fill-rule="evenodd" clip-rule="evenodd" d="M230.01 190.749C233.246 189.409 236.713 188.719 240.216 188.719C243.717 188.719 247.184 189.409 250.419 190.749C253.656 192.089 256.595 194.053 259.072 196.529C261.547 199.006 263.512 201.945 264.851 205.181C266.192 208.416 266.883 211.884 266.883 215.385H256.216C256.216 213.284 255.8 211.204 254.997 209.263C254.192 207.321 253.013 205.558 251.528 204.072C250.043 202.586 248.28 201.408 246.339 200.604C244.397 199.799 242.317 199.385 240.216 199.385C238.114 199.385 236.033 199.799 234.092 200.604C232.151 201.408 230.387 202.586 228.901 204.072C227.416 205.558 226.237 207.321 225.433 209.263C224.629 211.204 224.215 213.284 224.215 215.385H213.549C213.549 211.884 214.238 208.416 215.578 205.181C216.918 201.945 218.883 199.006 221.359 196.529C223.835 194.053 226.775 192.089 230.01 190.749Z" fill="#2A2933"/>
<path d="M227.366 335.251C241.424 327.008 241.424 306.683 227.366 298.44L197.67 281.035C183.449 272.696 165.548 282.952 165.549 299.438V334.254C165.549 350.739 183.449 360.995 197.67 352.659L227.366 335.251Z" fill="#006699"/>
<path d="M253.064 335.251C239.005 327.008 239.005 306.683 253.064 298.44L282.76 281.035C296.981 272.696 314.883 282.952 314.883 299.438V334.254C314.883 350.739 296.981 360.995 282.76 352.659L253.064 335.251Z" fill="#006699"/>
<path d="M240.216 293.24C225.488 293.24 213.549 305.179 213.549 319.907C213.549 334.635 225.488 346.574 240.216 346.574C254.941 346.574 266.883 334.635 266.883 319.907C266.883 305.179 254.941 293.24 240.216 293.24Z" fill="#0088CC"/>
<rect opacity="0.2" width="465" height="465" fill="url(#paint3_radial_2742_117)"/>
</g>
<path d="M575.64 201.5V103.5H612.04C618.947 103.5 625.06 104.9 630.38 107.7C635.7 110.407 639.853 114.233 642.84 119.18C645.827 124.033 647.32 129.68 647.32 136.12C647.32 142.467 645.873 148.113 642.98 153.06C640.087 158.007 636.12 161.927 631.08 164.82C626.04 167.62 620.207 169.02 613.58 169.02H594.82V201.5H575.64ZM594.82 151.38H613.16C617.453 151.38 620.953 149.98 623.66 147.18C626.46 144.287 627.86 140.6 627.86 136.12C627.86 131.64 626.32 128 623.24 125.2C620.253 122.4 616.38 121 611.62 121H594.82V151.38ZM657.335 201.5V103.5H675.815V201.5H657.335ZM734.069 201.5L733.509 187.36V166.08C733.509 161.88 733.042 158.287 732.109 155.3C731.269 152.313 729.869 150.027 727.909 148.44C726.042 146.76 723.475 145.92 720.209 145.92C717.222 145.92 714.515 146.573 712.089 147.88C709.662 149.187 707.609 151.193 705.929 153.9L689.689 148.3C690.995 145.313 692.909 142.42 695.429 139.62C697.949 136.727 701.215 134.393 705.229 132.62C709.335 130.753 714.329 129.82 720.209 129.82C727.302 129.82 733.182 131.173 737.849 133.88C742.609 136.587 746.109 140.413 748.349 145.36C750.682 150.213 751.802 156 751.709 162.72L751.289 201.5H734.069ZM714.469 203.18C706.069 203.18 699.535 201.313 694.869 197.58C690.295 193.847 688.009 188.573 688.009 181.76C688.009 174.293 690.482 168.693 695.429 164.96C700.469 161.133 707.515 159.22 716.569 159.22H734.349V172.94H723.009C716.942 172.94 712.742 173.687 710.409 175.18C708.075 176.58 706.909 178.587 706.909 181.2C706.909 183.253 707.842 184.887 709.709 186.1C711.575 187.22 714.189 187.78 717.549 187.78C720.629 187.78 723.335 187.08 725.669 185.68C728.095 184.187 730.009 182.32 731.409 180.08C732.809 177.747 733.509 175.367 733.509 172.94H737.989C737.989 182.46 736.169 189.88 732.529 195.2C728.982 200.52 722.962 203.18 714.469 203.18ZM778.523 231.18C776.003 231.18 773.203 230.667 770.123 229.64C767.136 228.707 764.476 227.587 762.143 226.28L769.003 211.3C770.59 212.14 772.036 212.793 773.343 213.26C774.743 213.82 775.956 214.1 776.983 214.1C778.943 214.1 780.67 213.54 782.163 212.42C783.656 211.393 784.87 209.853 785.803 207.8L794.063 188.34L816.323 131.5H836.623L804.843 207.52C802.883 212.187 800.83 216.293 798.683 219.84C796.536 223.48 793.876 226.28 790.703 228.24C787.623 230.2 783.563 231.18 778.523 231.18ZM789.163 201.5L757.103 131.5H777.403L800.783 188.34L806.803 201.5H789.163ZM852.187 201.5V124.5C852.187 117.033 854.1 111.247 857.927 107.14C861.754 102.94 867.587 100.84 875.427 100.84C878.134 100.84 880.98 101.307 883.967 102.24C887.047 103.173 889.847 104.293 892.367 105.6L885.507 118.9C884.014 118.153 882.66 117.593 881.447 117.22C880.234 116.847 879.114 116.66 878.087 116.66C875.567 116.66 873.7 117.547 872.487 119.32C871.274 121 870.667 123.753 870.667 127.58V201.5H852.187ZM840.567 146.34V131.5H887.887V146.34H840.567ZM946.348 201.5L945.228 188.62V131.5H963.708V201.5H946.348ZM898.888 167.34V131.5H917.368V167.34H898.888ZM917.368 167.34C917.368 172.007 917.881 175.693 918.908 178.4C920.028 181.013 921.568 182.927 923.528 184.14C925.581 185.26 927.868 185.82 930.388 185.82C935.241 185.913 938.928 184.467 941.448 181.48C943.968 178.4 945.228 173.967 945.228 168.18H951.528C951.528 175.647 950.408 181.993 948.168 187.22C945.928 192.353 942.848 196.32 938.928 199.12C935.008 201.827 930.388 203.18 925.068 203.18C919.468 203.18 914.708 202.06 910.788 199.82C906.868 197.58 903.881 194.127 901.828 189.46C899.868 184.7 898.888 178.587 898.888 171.12V167.34H917.368ZM979.718 201.5V103.5H998.198V201.5H979.718ZM575.64 361.5V263.5H612.04C618.947 263.5 625.06 264.9 630.38 267.7C635.7 270.407 639.853 274.233 642.84 279.18C645.827 284.033 647.32 289.68 647.32 296.12C647.32 302.467 645.873 308.113 642.98 313.06C640.087 318.007 636.12 321.927 631.08 324.82C626.04 327.62 620.207 329.02 613.58 329.02H594.82V361.5H575.64ZM594.82 311.38H613.16C617.453 311.38 620.953 309.98 623.66 307.18C626.46 304.287 627.86 300.6 627.86 296.12C627.86 291.64 626.32 288 623.24 285.2C620.253 282.4 616.38 281 611.62 281H594.82V311.38ZM670.082 324.68C670.082 317.12 671.529 310.867 674.422 305.92C677.409 300.973 681.189 297.287 685.762 294.86C690.429 292.433 695.282 291.22 700.322 291.22V309.14C696.029 309.14 691.969 309.653 688.142 310.68C684.409 311.707 681.375 313.387 679.042 315.72C676.709 318.053 675.542 321.04 675.542 324.68H670.082ZM657.062 361.5V291.5H675.542V361.5H657.062ZM743.009 363.18C735.916 363.18 729.569 361.64 723.969 358.56C718.462 355.387 714.122 351.047 710.949 345.54C707.869 340.033 706.329 333.687 706.329 326.5C706.329 319.313 707.869 312.967 710.949 307.46C714.029 301.953 718.322 297.66 723.829 294.58C729.336 291.407 735.636 289.82 742.729 289.82C749.916 289.82 756.262 291.407 761.769 294.58C767.276 297.66 771.569 301.953 774.649 307.46C777.729 312.967 779.269 319.313 779.269 326.5C779.269 333.687 777.729 340.033 774.649 345.54C771.569 351.047 767.276 355.387 761.769 358.56C756.356 361.64 750.102 363.18 743.009 363.18ZM743.009 346.1C746.462 346.1 749.496 345.26 752.109 343.58C754.722 341.9 756.729 339.613 758.129 336.72C759.622 333.733 760.369 330.327 760.369 326.5C760.369 322.673 759.622 319.313 758.129 316.42C756.636 313.433 754.536 311.1 751.829 309.42C749.216 307.74 746.182 306.9 742.729 306.9C739.369 306.9 736.336 307.74 733.629 309.42C731.016 311.1 728.962 313.433 727.469 316.42C725.976 319.313 725.229 322.673 725.229 326.5C725.229 330.327 725.976 333.733 727.469 336.72C728.962 339.613 731.062 341.9 733.769 343.58C736.476 345.26 739.556 346.1 743.009 346.1ZM822.957 391.32C817.637 391.32 812.923 390.947 808.817 390.2C804.71 389.453 801.257 388.473 798.457 387.26C795.657 386.047 793.37 384.833 791.597 383.62L798.877 368.78C800.183 369.527 801.91 370.367 804.057 371.3C806.203 372.327 808.77 373.167 811.757 373.82C814.743 374.567 818.197 374.94 822.117 374.94C825.85 374.94 829.117 374.193 831.917 372.7C834.81 371.3 837.05 369.06 838.637 365.98C840.317 362.993 841.157 359.167 841.157 354.5V291.5H859.637V353.94C859.637 361.78 858.143 368.5 855.157 374.1C852.17 379.793 847.923 384.087 842.417 386.98C837.003 389.873 830.517 391.32 822.957 391.32ZM819.317 359.54C812.877 359.54 807.277 358.14 802.517 355.34C797.85 352.54 794.21 348.62 791.597 343.58C788.983 338.54 787.677 332.567 787.677 325.66C787.677 318.38 788.983 312.08 791.597 306.76C794.21 301.347 797.85 297.193 802.517 294.3C807.277 291.313 812.877 289.82 819.317 289.82C824.917 289.82 829.77 291.313 833.877 294.3C837.983 297.193 841.157 301.347 843.397 306.76C845.637 312.173 846.757 318.613 846.757 326.08C846.757 332.8 845.637 338.68 843.397 343.72C841.157 348.76 837.983 352.68 833.877 355.48C829.77 358.187 824.917 359.54 819.317 359.54ZM824.637 344C827.81 344 830.563 343.207 832.897 341.62C835.323 339.94 837.19 337.7 838.497 334.9C839.803 332.007 840.457 328.74 840.457 325.1C840.457 321.367 839.757 318.1 838.357 315.3C837.05 312.5 835.183 310.307 832.757 308.72C830.423 307.133 827.67 306.34 824.497 306.34C821.23 306.34 818.337 307.133 815.817 308.72C813.297 310.307 811.337 312.5 809.937 315.3C808.537 318.1 807.79 321.367 807.697 325.1C807.79 328.74 808.537 332.007 809.937 334.9C811.337 337.7 813.297 339.94 815.817 341.62C818.43 343.207 821.37 344 824.637 344ZM888.559 324.68C888.559 317.12 890.005 310.867 892.899 305.92C895.885 300.973 899.665 297.287 904.239 294.86C908.905 292.433 913.759 291.22 918.799 291.22V309.14C914.505 309.14 910.445 309.653 906.619 310.68C902.885 311.707 899.852 313.387 897.519 315.72C895.185 318.053 894.019 321.04 894.019 324.68H888.559ZM875.539 361.5V291.5H894.019V361.5H875.539ZM970.865 361.5L970.305 347.36V326.08C970.305 321.88 969.839 318.287 968.905 315.3C968.065 312.313 966.665 310.027 964.705 308.44C962.839 306.76 960.272 305.92 957.005 305.92C954.019 305.92 951.312 306.573 948.885 307.88C946.459 309.187 944.405 311.193 942.725 313.9L926.485 308.3C927.792 305.313 929.705 302.42 932.225 299.62C934.745 296.727 938.012 294.393 942.025 292.62C946.132 290.753 951.125 289.82 957.005 289.82C964.099 289.82 969.979 291.173 974.645 293.88C979.405 296.587 982.905 300.413 985.145 305.36C987.479 310.213 988.599 316 988.505 322.72L988.085 361.5H970.865ZM951.265 363.18C942.865 363.18 936.332 361.313 931.665 357.58C927.092 353.847 924.805 348.573 924.805 341.76C924.805 334.293 927.279 328.693 932.225 324.96C937.265 321.133 944.312 319.22 953.365 319.22H971.145V332.94H959.805C953.739 332.94 949.539 333.687 947.205 335.18C944.872 336.58 943.705 338.587 943.705 341.2C943.705 343.253 944.639 344.887 946.505 346.1C948.372 347.22 950.985 347.78 954.345 347.78C957.425 347.78 960.132 347.08 962.465 345.68C964.892 344.187 966.805 342.32 968.205 340.08C969.605 337.747 970.305 335.367 970.305 332.94H974.785C974.785 342.46 972.965 349.88 969.325 355.2C965.779 360.52 959.759 363.18 951.265 363.18ZM1003.23 361.5V291.5H1020.59L1021.43 300.6C1023.58 297.053 1026.33 294.393 1029.69 292.62C1033.05 290.753 1036.79 289.82 1040.89 289.82C1046.59 289.82 1051.35 291.033 1055.17 293.46C1059.09 295.887 1061.94 299.62 1063.71 304.66C1065.77 299.9 1068.66 296.26 1072.39 293.74C1076.13 291.127 1080.47 289.82 1085.41 289.82C1093.63 289.82 1099.88 292.433 1104.17 297.66C1108.47 302.793 1110.61 310.727 1110.61 321.46V361.5H1092.13V325.66C1092.13 320.9 1091.62 317.213 1090.59 314.6C1089.57 311.987 1088.17 310.12 1086.39 309C1084.62 307.787 1082.52 307.18 1080.09 307.18C1075.61 307.087 1072.16 308.533 1069.73 311.52C1067.31 314.507 1066.09 318.94 1066.09 324.82V361.5H1047.61V325.66C1047.61 320.9 1047.1 317.213 1046.07 314.6C1045.14 311.987 1043.74 310.12 1041.87 309C1040.1 307.787 1038 307.18 1035.57 307.18C1031.09 307.087 1027.64 308.533 1025.21 311.52C1022.88 314.507 1021.71 318.94 1021.71 324.82V361.5H1003.23ZM1125.32 361.5V291.5H1142.68L1143.52 300.6C1145.67 297.053 1148.42 294.393 1151.78 292.62C1155.14 290.753 1158.88 289.82 1162.98 289.82C1168.68 289.82 1173.44 291.033 1177.26 293.46C1181.18 295.887 1184.03 299.62 1185.8 304.66C1187.86 299.9 1190.75 296.26 1194.48 293.74C1198.22 291.127 1202.56 289.82 1207.5 289.82C1215.72 289.82 1221.97 292.433 1226.26 297.66C1230.56 302.793 1232.7 310.727 1232.7 321.46V361.5H1214.22V325.66C1214.22 320.9 1213.71 317.213 1212.68 314.6C1211.66 311.987 1210.26 310.12 1208.48 309C1206.71 307.787 1204.61 307.18 1202.18 307.18C1197.7 307.087 1194.25 308.533 1191.82 311.52C1189.4 314.507 1188.18 318.94 1188.18 324.82V361.5H1169.7V325.66C1169.7 320.9 1169.19 317.213 1168.16 314.6C1167.23 311.987 1165.83 310.12 1163.96 309C1162.19 307.787 1160.09 307.18 1157.66 307.18C1153.18 307.087 1149.73 308.533 1147.3 311.52C1144.97 314.507 1143.8 318.94 1143.8 324.82V361.5H1125.32ZM1248.53 361.5V291.5H1267.01V361.5H1248.53ZM1257.77 280.16C1254.97 280.16 1252.5 279.133 1250.35 277.08C1248.21 274.933 1247.13 272.413 1247.13 269.52C1247.13 266.627 1248.21 264.153 1250.35 262.1C1252.5 259.953 1254.97 258.88 1257.77 258.88C1260.67 258.88 1263.14 259.953 1265.19 262.1C1267.34 264.153 1268.41 266.627 1268.41 269.52C1268.41 272.413 1267.34 274.933 1265.19 277.08C1263.14 279.133 1260.67 280.16 1257.77 280.16ZM1284.05 361.5V291.5H1301.41L1302.53 304.38V361.5H1284.05ZM1330.39 361.5V325.66H1348.87V361.5H1330.39ZM1330.39 325.66C1330.39 320.9 1329.83 317.213 1328.71 314.6C1327.69 311.987 1326.19 310.12 1324.23 309C1322.27 307.787 1319.99 307.18 1317.37 307.18C1312.61 307.087 1308.93 308.533 1306.31 311.52C1303.79 314.507 1302.53 318.94 1302.53 324.82H1296.37C1296.37 317.353 1297.45 311.053 1299.59 305.92C1301.83 300.693 1304.91 296.727 1308.83 294.02C1312.85 291.22 1317.51 289.82 1322.83 289.82C1328.34 289.82 1333.05 290.94 1336.97 293.18C1340.89 295.42 1343.88 298.92 1345.93 303.68C1347.99 308.347 1348.97 314.413 1348.87 321.88V325.66H1330.39ZM1395.12 391.32C1389.8 391.32 1385.09 390.947 1380.98 390.2C1376.88 389.453 1373.42 388.473 1370.62 387.26C1367.82 386.047 1365.54 384.833 1363.76 383.62L1371.04 368.78C1372.35 369.527 1374.08 370.367 1376.22 371.3C1378.37 372.327 1380.94 373.167 1383.92 373.82C1386.91 374.567 1390.36 374.94 1394.28 374.94C1398.02 374.94 1401.28 374.193 1404.08 372.7C1406.98 371.3 1409.22 369.06 1410.8 365.98C1412.48 362.993 1413.32 359.167 1413.32 354.5V291.5H1431.8V353.94C1431.8 361.78 1430.31 368.5 1427.32 374.1C1424.34 379.793 1420.09 384.087 1414.58 386.98C1409.17 389.873 1402.68 391.32 1395.12 391.32ZM1391.48 359.54C1385.04 359.54 1379.44 358.14 1374.68 355.34C1370.02 352.54 1366.38 348.62 1363.76 343.58C1361.15 338.54 1359.84 332.567 1359.84 325.66C1359.84 318.38 1361.15 312.08 1363.76 306.76C1366.38 301.347 1370.02 297.193 1374.68 294.3C1379.44 291.313 1385.04 289.82 1391.48 289.82C1397.08 289.82 1401.94 291.313 1406.04 294.3C1410.15 297.193 1413.32 301.347 1415.56 306.76C1417.8 312.173 1418.92 318.613 1418.92 326.08C1418.92 332.8 1417.8 338.68 1415.56 343.72C1413.32 348.76 1410.15 352.68 1406.04 355.48C1401.94 358.187 1397.08 359.54 1391.48 359.54ZM1396.8 344C1399.98 344 1402.73 343.207 1405.06 341.62C1407.49 339.94 1409.36 337.7 1410.66 334.9C1411.97 332.007 1412.62 328.74 1412.62 325.1C1412.62 321.367 1411.92 318.1 1410.52 315.3C1409.22 312.5 1407.35 310.307 1404.92 308.72C1402.59 307.133 1399.84 306.34 1396.66 306.34C1393.4 306.34 1390.5 307.133 1387.98 308.72C1385.46 310.307 1383.5 312.5 1382.1 315.3C1380.7 318.1 1379.96 321.367 1379.86 325.1C1379.96 328.74 1380.7 332.007 1382.1 334.9C1383.5 337.7 1385.46 339.94 1387.98 341.62C1390.6 343.207 1393.54 344 1396.8 344Z" fill="#006590"/>
<defs>
<radialGradient id="paint0_radial_2742_117" cx="0" cy="0" r="1" gradientUnits="userSpaceOnUse" gradientTransform="translate(61.5486 299.384) rotate(-41.7428) scale(116.153 118.678)">
<stop stop-color="white" stop-opacity="0"/>
<stop offset="1" stop-color="#085099" stop-opacity="0.9"/>
</radialGradient>
<linearGradient id="paint1_linear_2742_117" x1="154.882" y1="148.719" x2="128.215" y2="42.0523" gradientUnits="userSpaceOnUse">
<stop stop-color="#FF99BB"/>
<stop offset="1" stop-color="#FFCCED"/>
</linearGradient>
<linearGradient id="paint2_linear_2742_117" x1="228.207" y1="130.052" x2="228.207" y2="439.384" gradientUnits="userSpaceOnUse">
<stop stop-color="white" stop-opacity="0"/>
<stop offset="1" stop-color="#E4F4FF"/>
</linearGradient>
<radialGradient id="paint3_radial_2742_117" cx="0" cy="0" r="1" gradientUnits="userSpaceOnUse" gradientTransform="translate(68.25 68.25) rotate(45) scale(464.923)">
<stop stop-color="white"/>
<stop offset="0.333333" stop-color="white" stop-opacity="0.5"/>
<stop offset="1" stop-color="white" stop-opacity="0"/>
</radialGradient>
<clipPath id="clip0_2742_117">
<rect width="465" height="465" rx="44" fill="white"/>
</clipPath>
</defs>
</svg>
